<?xml version="1.0" encoding="UTF-8"?>
<svg width="258.69px" height="120.8px" preserveAspectRatio="xMidYMid" viewBox="120.66 14.6 258.69 120.8" xmlns="http://www.w3.org/2000/svg">
<defs>
<filter id="a">
<feFlood flood-color="#f00" flood-opacity=".7" result="c1"/>
<feFlood flood-color="#0000ff" flood-opacity=".7" result="c3"/>
<feComposite in="c1" in2="SourceAlpha" operator="in" result="text-c1"/>
<feComposite in="c3" in2="SourceAlpha" operator="in" result="text-c3"/>
<feOffset dx="5" dy="-1" in="text-c1" result="text1"/>
<feOffset dx="-5" dy="1" in="text-c3" result="text3"/>
<feBlend in="SourceGraphic" in2="text1" mode="multiply" result="text4"/>
<feBlend in="text4" in2="text3" mode="multiply"/>
</filter>
</defs>
<g filter="url(#a)">
<g transform="translate(162.52 97.145)">
<path d="m42.62-26.56q0 27.26-29.56 27.26-4.74 0-12.55-1.15l7.17-37.82q0.51-2.56 0.83-4.03 9.73-0.71 14.05-0.71t8.29 0.9q3.97 0.89 6.59 2.88 5.18 3.9 5.18 12.67zm-13.18-2.37q0-9.53-6.85-9.53h-0.64q-0.32 0-0.64 0.06l-6.59 34.37q0.26 0.13 0.51 0.13h0.51q2.37 0 4.84-1.48 2.46-1.47 4.38-4.48 4.48-6.97 4.48-19.07zm36.48 10.95q2.3-4.1 2.3-8.26 0-2.75-1.98-2.75-1.54 0-3.14 2.62-1.66 2.63-2.17 6.02l-3.33 20.35-13.25 1.28 6.53-33.92 10.56-1.28-1.15 6.46q3.13-6.46 10.17-6.46 3.72 0 5.73 1.92 2.02 1.92 2.02 5.86 0 3.93-2.59 6.43-2.6 2.49-7.01 2.49-1.92 0-2.69-0.76zm16.1 16.06q-1.51-1.66-2.18-4.29-0.67-2.62-0.67-6.91t1.47-8.19q1.47-3.91 4.16-6.72 5.5-5.89 14.59-5.89 3.27 0 5.63 1.09l10.95-1.09-4.74 24.96q-0.19 0.77-0.19 2.18 0 1.4 0.86 2.3 0.87 0.9 2.15 1.02-0.64 2.18-2.98 3.46-2.33 1.28-4.96 1.28-2.62 0-4.38-0.99t-2.27-2.66q-1.03 1.6-3.2 2.63-2.18 1.02-5.09 1.02t-5.28-0.77-3.87-2.43zm13.5-25.98q-0.74 1.15-1.38 3.1t-1.69 7.17q-1.06 5.21-1.06 8.93 0 3.71 0.58 4.8 0.57 1.08 1.6 1.08 2.05 0 3.55-1.95t2.08-5.41l3.39-18.75q-1.34-1.15-2.91-1.15t-2.5 0.51q-0.92 0.51-1.66 1.67zm71.65 17.21q-4.23 5.83-8.29 8.9t-8.26 3.07q-4.19 0-5.66-0.83v-14.08q-3.65 9.73-10.18 13.5-2.36 1.41-4.6 1.41-4.29 0-6.15-0.83-0.45-14.66-0.83-18.72-0.38-4.07-0.7-6.56-0.64-4.99-2.82-7.04 2.75-2.05 6.59-2.05 7.43 0 8.45 9.22 0.26 2.17 0.26 4.48 0 3.45-0.77 15.48 1.53-0.7 3.17-3.23 1.63-2.53 2.97-5.98 3.01-8 3.01-14.91 0-1.09-0.29-2.24-0.29-1.16-0.61-1.48 2.24-1.34 5.67-1.34 3.42 0 5.05 2.34 1.64 2.33 2.08 6.62 0.52 5.44 0.52 8.7 0 4.55-0.45 11.27 3.2-2.31 5.82-9.86 2.63-7.55 2.63-12.93 0-2.36-0.39-3.77 2.11-2.37 5.76-2.37 2.24 0 3.87 1.22 1.64 1.21 1.64 3.48 0 2.28-0.68 4.71-0.67 2.43-1.76 4.93-2.11 4.99-5.05 8.89z" fill="#444"/>
</g>
</g>
<style>text {
  font-size: 64px;
  font-family: Arial Black;
  dominant-baseline: central;
  text-anchor: middle;
}</style>
</svg>
