<svg width="486.8800170898437px" height="124.439990234375px" xmlns="http://www.w3.org/2000/svg" viewBox="6.559991455078148 12.780004882812499 486.8800170898437 124.439990234375" style="background: none;" preserveAspectRatio="xMidYMid"><defs><filter id="editing-vr"><feFlood flood-color="#f00" flood-opacity="0.7" result="c1"></feFlood><feFlood flood-color="#00f" flood-opacity="0.7" result="c3"></feFlood><feComposite operator="in" in="c1" in2="SourceAlpha" result="text-c1"></feComposite><feComposite operator="in" in="c3" in2="SourceAlpha" result="text-c3"></feComposite><feOffset in="text-c1" dx="5" dy="-1" result="text1"></feOffset><feOffset in="text-c3" dx="-5" dy="1" result="text3"></feOffset><feBlend in="SourceGraphic" in2="text1" mode="multiply" result="text4"></feBlend><feBlend in="text4" in2="text3" mode="multiply"></feBlend></filter></defs><g filter="url(#editing-vr)"><g transform="translate(77.19999551773071, 99)"><path d="M6.21-31.17L6.21-31.17L6.21-31.17Q4.03-32.83 4.03-36.38L4.03-36.38L4.03-36.38Q4.03-39.94 6.37-41.79L6.37-41.79L6.37-41.79Q8.70-43.65 12.74-43.65L12.74-43.65L12.74-43.65Q15.30-43.65 21.38-42.75L21.38-42.75L25.73-42.11L25.73-42.11Q27.90-41.86 30.18-41.86L30.18-41.86L30.18-41.86Q32.45-41.86 33.98-42.82L33.98-42.82L33.98-42.82Q36.29-40.77 36.29-37.82L36.29-37.82L36.29-37.82Q36.29-34.88 33.66-32.77L33.66-32.77L33.66-32.77Q30.98-30.53 27.52-30.53L27.52-30.53L27.52-30.53Q25.86-30.53 23.17-30.98L23.17-30.98L23.17-30.98Q20.03-21.12 20.03-14.27L20.03-14.27L20.03-14.27Q20.03-7.42 23.49-3.84L23.49-3.84L23.49-3.84Q21.89-0.96 19.52 0.16L19.52 0.16L19.52 0.16Q17.15 1.28 13.60 1.28L13.60 1.28L13.60 1.28Q10.05 1.28 7.84-0.67L7.84-0.67L7.84-0.67Q5.63-2.62 5.63-6.66L5.63-6.66L5.63-6.66Q5.63-11.33 8.19-19.01L8.19-19.01L8.19-19.01Q10.75-26.62 14.59-32.45L14.59-32.45L14.59-32.45Q12.74-32.64 10.82-32.64L10.82-32.64L10.82-32.64Q6.85-32.64 6.21-31.17ZM49.60-3.52L49.60-3.52L49.60-3.52Q47.62 1.28 41.28 1.28L41.28 1.28L41.28 1.28Q38.02 1.28 35.97-0.96L35.97-0.96L35.97-0.96Q34.24-2.94 34.24-4.93L34.24-4.93L34.24-4.93Q34.24-10.11 36.61-20.22L36.61-20.22L38.98-32.64L51.97-33.92L48.06-13.70L48.06-13.70Q46.98-8.96 46.98-7.30L46.98-7.30L46.98-7.30Q46.98-3.65 49.60-3.52ZM40.13-41.54L40.13-41.54L40.13-41.54Q40.13-44.03 42.21-45.38L42.21-45.38L42.21-45.38Q44.29-46.72 47.30-46.72L47.30-46.72L47.30-46.72Q50.30-46.72 52.13-45.38L52.13-45.38L52.13-45.38Q53.95-44.03 53.95-41.54L53.95-41.54L53.95-41.54Q53.95-39.04 51.94-37.76L51.94-37.76L51.94-37.76Q49.92-36.48 46.91-36.48L46.91-36.48L46.91-36.48Q43.90-36.48 42.02-37.76L42.02-37.76L42.02-37.76Q40.13-39.04 40.13-41.54ZM86.46-26.62L86.46-26.62L86.46-26.62Q86.46-23.94 84.22-22.27L84.22-22.27L84.22-22.27Q81.98-20.61 78.34-20.61L78.34-20.61L78.34-20.61Q76.80-20.61 75.90-21.06L75.90-21.06L75.90-21.06Q76.61-22.72 76.83-24.80L76.83-24.80L76.83-24.80Q77.06-26.88 77.06-27.46L77.06-27.46L77.06-27.46Q77.06-30.14 75.20-30.14L75.20-30.14L75.20-30.14Q73.92-30.14 72.48-28.54L72.48-28.54L72.48-28.54Q71.04-26.94 69.82-24.45L69.82-24.45L69.82-24.45Q67.14-18.69 67.14-12.86L67.14-12.86L67.14-12.86Q67.14-9.66 68.35-8.22L68.35-8.22L68.35-8.22Q69.57-6.78 72.26-6.78L72.26-6.78L72.26-6.78Q75.97-6.78 78.91-9.86L78.91-9.86L78.91-9.86Q79.74-10.82 80.19-11.90L80.19-11.90L80.19-11.90Q82.62-10.62 82.62-7.10L82.62-7.10L82.62-7.10Q82.62-3.52 78.66-1.15L78.66-1.15L78.66-1.15Q74.56 1.28 68.03 1.28L68.03 1.28L68.03 1.28Q55.04 1.28 55.04-12.48L55.04-12.48L55.04-12.48Q55.04-22.53 60.74-28.29L60.74-28.29L60.74-28.29Q66.24-33.92 76.35-33.92L76.35-33.92L76.35-33.92Q86.46-33.92 86.46-26.62ZM90.56-10.37L90.56-10.37L90.56-10.37Q88.51-11.84 88.51-14.66L88.51-14.66L88.51-14.66Q88.51-16.19 89.28-17.44L89.28-17.44L89.28-17.44Q90.05-18.69 91.58-18.88L91.58-18.88L104.19-18.88L104.19-18.88Q106.30-18.88 106.94-20.16L106.94-20.16L106.94-20.16Q107.97-19.58 108.42-18.37L108.42-18.37L108.42-18.37Q108.86-17.15 108.86-15.87L108.86-15.87L108.86-15.87Q108.86-14.59 107.87-13.34L107.87-13.34L107.87-13.34Q106.88-12.10 105.41-11.97L105.41-11.97L93.70-11.97L93.70-11.97Q92.35-11.97 91.71-11.55L91.71-11.55L91.71-11.55Q91.07-11.14 90.56-10.37ZM118.40-31.17L118.40-31.17L118.40-31.17Q116.22-32.83 116.22-36.38L116.22-36.38L116.22-36.38Q116.22-39.94 118.56-41.79L118.56-41.79L118.56-41.79Q120.90-43.65 124.93-43.65L124.93-43.65L124.93-43.65Q127.49-43.65 133.57-42.75L133.57-42.75L137.92-42.11L137.92-42.11Q140.10-41.86 142.37-41.86L142.37-41.86L142.37-41.86Q144.64-41.86 146.18-42.82L146.18-42.82L146.18-42.82Q148.48-40.77 148.48-37.82L148.48-37.82L148.48-37.82Q148.48-34.88 145.86-32.77L145.86-32.77L145.86-32.77Q143.17-30.53 139.71-30.53L139.71-30.53L139.71-30.53Q138.05-30.53 135.36-30.98L135.36-30.98L135.36-30.98Q132.22-21.12 132.22-14.27L132.22-14.27L132.22-14.27Q132.22-7.42 135.68-3.84L135.68-3.84L135.68-3.84Q134.08-0.96 131.71 0.16L131.71 0.16L131.71 0.16Q129.34 1.28 125.79 1.28L125.79 1.28L125.79 1.28Q122.24 1.28 120.03-0.67L120.03-0.67L120.03-0.67Q117.82-2.62 117.82-6.66L117.82-6.66L117.82-6.66Q117.82-11.33 120.38-19.01L120.38-19.01L120.38-19.01Q122.94-26.62 126.78-32.45L126.78-32.45L126.78-32.45Q124.93-32.64 123.01-32.64L123.01-32.64L123.01-32.64Q119.04-32.64 118.40-31.17ZM146.27-1.92L146.27-1.92L146.27-1.92Q144.77-3.58 144.10-6.21L144.10-6.21L144.10-6.21Q143.42-8.83 143.42-13.12L143.42-13.12L143.42-13.12Q143.42-17.41 144.90-21.31L144.90-21.31L144.90-21.31Q146.37-25.22 149.06-28.03L149.06-28.03L149.06-28.03Q154.56-33.92 163.65-33.92L163.65-33.92L163.65-33.92Q166.91-33.92 169.28-32.83L169.28-32.83L180.22-33.92L175.49-8.96L175.49-8.96Q175.30-8.19 175.30-6.78L175.30-6.78L175.30-6.78Q175.30-5.38 176.16-4.48L176.16-4.48L176.16-4.48Q177.02-3.58 178.30-3.46L178.30-3.46L178.30-3.46Q177.66-1.28 175.33 0L175.33 0L175.33 0Q172.99 1.28 170.37 1.28L170.37 1.28L170.37 1.28Q167.74 1.28 165.98 0.29L165.98 0.29L165.98 0.29Q164.22-0.70 163.71-2.37L163.71-2.37L163.71-2.37Q162.69-0.77 160.51 0.26L160.51 0.26L160.51 0.26Q158.34 1.28 155.42 1.28L155.42 1.28L155.42 1.28Q152.51 1.28 150.14 0.51L150.14 0.51L150.14 0.51Q147.78-0.26 146.27-1.92ZM159.78-27.90L159.78-27.90L159.78-27.90Q159.04-26.75 158.40-24.80L158.40-24.80L158.40-24.80Q157.76-22.85 156.70-17.63L156.70-17.63L156.70-17.63Q155.65-12.42 155.65-8.70L155.65-8.70L155.65-8.70Q155.65-4.99 156.22-3.90L156.22-3.90L156.22-3.90Q156.80-2.82 157.82-2.82L157.82-2.82L157.82-2.82Q159.87-2.82 161.38-4.77L161.38-4.77L161.38-4.77Q162.88-6.72 163.46-10.18L163.46-10.18L166.85-28.93L166.85-28.93Q165.50-30.08 163.94-30.08L163.94-30.08L163.94-30.08Q162.37-30.08 161.44-29.57L161.44-29.57L161.44-29.57Q160.51-29.06 159.78-27.90ZM214.85-26.62L214.85-26.62L214.85-26.62Q214.85-23.94 212.61-22.27L212.61-22.27L212.61-22.27Q210.37-20.61 206.72-20.61L206.72-20.61L206.72-20.61Q205.18-20.61 204.29-21.06L204.29-21.06L204.29-21.06Q204.99-22.72 205.22-24.80L205.22-24.80L205.22-24.80Q205.44-26.88 205.44-27.46L205.44-27.46L205.44-27.46Q205.44-30.14 203.58-30.14L203.58-30.14L203.58-30.14Q202.30-30.14 200.86-28.54L200.86-28.54L200.86-28.54Q199.42-26.94 198.21-24.45L198.21-24.45L198.21-24.45Q195.52-18.69 195.52-12.86L195.52-12.86L195.52-12.86Q195.52-9.66 196.74-8.22L196.74-8.22L196.74-8.22Q197.95-6.78 200.64-6.78L200.64-6.78L200.64-6.78Q204.35-6.78 207.30-9.86L207.30-9.86L207.30-9.86Q208.13-10.82 208.58-11.90L208.58-11.90L208.58-11.90Q211.01-10.62 211.01-7.10L211.01-7.10L211.01-7.10Q211.01-3.52 207.04-1.15L207.04-1.15L207.04-1.15Q202.94 1.28 196.42 1.28L196.42 1.28L196.42 1.28Q183.42 1.28 183.42-12.48L183.42-12.48L183.42-12.48Q183.42-22.53 189.12-28.29L189.12-28.29L189.12-28.29Q194.62-33.92 204.74-33.92L204.74-33.92L204.74-33.92Q214.85-33.92 214.85-26.62ZM218.94-10.37L218.94-10.37L218.94-10.37Q216.90-11.84 216.90-14.66L216.90-14.66L216.90-14.66Q216.90-16.19 217.66-17.44L217.66-17.44L217.66-17.44Q218.43-18.69 219.97-18.88L219.97-18.88L232.58-18.88L232.58-18.88Q234.69-18.88 235.33-20.16L235.33-20.16L235.33-20.16Q236.35-19.58 236.80-18.37L236.80-18.37L236.80-18.37Q237.25-17.15 237.25-15.87L237.25-15.87L237.25-15.87Q237.25-14.59 236.26-13.34L236.26-13.34L236.26-13.34Q235.26-12.10 233.79-11.97L233.79-11.97L222.08-11.97L222.08-11.97Q220.74-11.97 220.10-11.55L220.10-11.55L220.10-11.55Q219.46-11.14 218.94-10.37ZM246.78-31.17L246.78-31.17L246.78-31.17Q244.61-32.83 244.61-36.38L244.61-36.38L244.61-36.38Q244.61-39.94 246.94-41.79L246.94-41.79L246.94-41.79Q249.28-43.65 253.31-43.65L253.31-43.65L253.31-43.65Q255.87-43.65 261.95-42.75L261.95-42.75L266.30-42.11L266.30-42.11Q268.48-41.86 270.75-41.86L270.75-41.86L270.75-41.86Q273.02-41.86 274.56-42.82L274.56-42.82L274.56-42.82Q276.86-40.77 276.86-37.82L276.86-37.82L276.86-37.82Q276.86-34.88 274.24-32.77L274.24-32.77L274.24-32.77Q271.55-30.53 268.10-30.53L268.10-30.53L268.10-30.53Q266.43-30.53 263.74-30.98L263.74-30.98L263.74-30.98Q260.61-21.12 260.61-14.27L260.61-14.27L260.61-14.27Q260.61-7.42 264.06-3.84L264.06-3.84L264.06-3.84Q262.46-0.96 260.10 0.16L260.10 0.16L260.10 0.16Q257.73 1.28 254.18 1.28L254.18 1.28L254.18 1.28Q250.62 1.28 248.42-0.67L248.42-0.67L248.42-0.67Q246.21-2.62 246.21-6.66L246.21-6.66L246.21-6.66Q246.21-11.33 248.77-19.01L248.77-19.01L248.77-19.01Q251.33-26.62 255.17-32.45L255.17-32.45L255.17-32.45Q253.31-32.64 251.39-32.64L251.39-32.64L251.39-32.64Q247.42-32.64 246.78-31.17ZM285.82 1.28L285.82 1.28L285.82 1.28Q271.74 1.28 271.74-11.97L271.74-11.97L271.74-11.97Q271.74-21.38 276.93-27.46L276.93-27.46L276.93-27.46Q282.43-33.92 291.97-33.92L291.97-33.92L291.97-33.92Q298.88-33.92 302.40-30.72L302.40-30.72L302.40-30.72Q305.92-27.52 305.92-20.80L305.92-20.80L305.92-20.80Q305.92-10.56 300.42-4.61L300.42-4.61L300.42-4.61Q295.04 1.28 285.82 1.28ZM287.49-26.56L287.49-26.56L287.49-26.56Q286.72-24.83 286.11-22.24L286.11-22.24L286.11-22.24Q285.50-19.65 284.74-15.55L284.74-15.55L284.74-15.55Q283.97-11.46 283.97-6.40L283.97-6.40L283.97-6.40Q283.97-4.74 284.51-3.65L284.51-3.65L284.51-3.65Q285.06-2.56 286.53-2.56L286.53-2.56L286.53-2.56Q288-2.56 288.93-3.26L288.93-3.26L288.93-3.26Q289.86-3.97 290.56-5.63L290.56-5.63L290.56-5.63Q291.84-8.58 292.86-14.05L292.86-14.05L292.86-14.05Q293.89-19.52 293.98-21.89L293.98-21.89L293.98-21.89Q294.08-24.26 294.08-26.02L294.08-26.02L294.08-26.02Q294.08-27.78 293.57-28.93L293.57-28.93L293.57-28.93Q293.06-30.08 291.62-30.08L291.62-30.08L291.62-30.08Q290.18-30.08 289.22-29.18L289.22-29.18L289.22-29.18Q288.26-28.29 287.49-26.56ZM335.62-10.82L335.62-10.82L335.62-10.82Q337.22-9.73 337.22-7.33L337.22-7.33L337.22-7.33Q337.22-4.93 336-3.39L336-3.39L336-3.39Q334.78-1.86 332.80-0.83L332.80-0.83L332.80-0.83Q328.70 1.28 324.29 1.28L324.29 1.28L324.29 1.28Q319.87 1.28 317.28 0.32L317.28 0.32L317.28 0.32Q314.69-0.64 312.96-2.43L312.96-2.43L312.96-2.43Q309.57-5.82 309.57-12.03L309.57-12.03L309.57-12.03Q309.57-21.70 314.82-27.58L314.82-27.58L314.82-27.58Q320.45-33.92 330.24-33.92L330.24-33.92L330.24-33.92Q336.32-33.92 339.33-31.36L339.33-31.36L339.33-31.36Q341.57-29.44 341.57-26.30L341.57-26.30L341.57-26.30Q341.57-15.04 322.11-15.04L322.11-15.04L322.11-15.04Q321.86-13.38 321.86-11.97L321.86-11.97L321.86-11.97Q321.86-9.02 323.17-7.90L323.17-7.90L323.17-7.90Q324.48-6.78 326.91-6.78L326.91-6.78L326.91-6.78Q329.34-6.78 331.94-7.90L331.94-7.90L331.94-7.90Q334.53-9.02 335.62-10.82ZM322.56-17.79L322.56-17.79L322.56-17.79Q327.10-17.79 329.73-20.61L329.73-20.61L329.73-20.61Q332.35-23.30 332.35-27.58L332.35-27.58L332.35-27.58Q332.35-29.06 331.81-29.86L331.81-29.86L331.81-29.86Q331.26-30.66 330.18-30.66L330.18-30.66L330.18-30.66Q329.09-30.66 328.16-30.24L328.16-30.24L328.16-30.24Q327.23-29.82 326.27-28.42L326.27-28.42L326.27-28.42Q323.90-25.22 322.56-17.79Z" fill="#444"></path></g></g><style>text {
  font-size: 64px;
  font-family: Arial Black;
  dominant-baseline: central;
  text-anchor: middle;
}</style></svg>