<svg width="380.79998779296875px" height="124.439990234375px" xmlns="http://www.w3.org/2000/svg" viewBox="59.600006103515625 12.780004882812499 380.79998779296875 124.439990234375" style="background: none;" preserveAspectRatio="xMidYMid"><defs><filter id="editing-vr"><feFlood flood-color="#f00" flood-opacity="0.7" result="c1"></feFlood><feFlood flood-color="#00f" flood-opacity="0.7" result="c3"></feFlood><feComposite operator="in" in="c1" in2="SourceAlpha" result="text-c1"></feComposite><feComposite operator="in" in="c3" in2="SourceAlpha" result="text-c3"></feComposite><feOffset in="text-c1" dx="5" dy="-1" result="text1"></feOffset><feOffset in="text-c3" dx="-5" dy="1" result="text3"></feOffset><feBlend in="SourceGraphic" in2="text1" mode="multiply" result="text4"></feBlend><feBlend in="text4" in2="text3" mode="multiply"></feBlend></filter></defs><g filter="url(#editing-vr)"><g transform="translate(117.64998936653137, 99)"><path d="M2.30-9.47L2.30-9.47L2.30-9.47Q2.30-11.97 2.94-15.17L2.94-15.17L8.13-42.24L22.27-42.24L17.15-14.98L17.15-14.98Q16.58-11.97 16.58-9.76L16.58-9.76L16.58-9.76Q16.58-7.55 17.50-6.40L17.50-6.40L17.50-6.40Q18.43-5.25 20.16-5.25L20.16-5.25L20.16-5.25Q21.89-5.25 22.98-5.70L22.98-5.70L22.98-5.70Q24.06-6.14 24.96-7.23L24.96-7.23L24.96-7.23Q26.69-9.41 27.78-14.98L27.78-14.98L32.96-42.24L42.62-42.24L37.50-15.04L37.50-15.04Q35.71-5.95 30.78-2.30L30.78-2.30L30.78-2.30Q25.98 1.28 16.51 1.28L16.51 1.28L16.51 1.28Q9.41 1.28 5.63-1.79L5.63-1.79L5.63-1.79Q2.30-4.48 2.30-9.47ZM59.20-3.52L59.20-3.52L59.20-3.52Q57.22 1.28 50.88 1.28L50.88 1.28L50.88 1.28Q47.68 1.28 45.63-0.96L45.63-0.96L45.63-0.96Q43.97-2.82 43.97-4.93L43.97-4.93L43.97-4.93Q43.97-9.73 46.21-20.22L46.21-20.22L50.88-44.80L63.87-46.08L57.66-13.70L57.66-13.70Q56.58-8.96 56.58-7.30L56.58-7.30L56.58-7.30Q56.58-3.65 59.20-3.52ZM65.66-6.40L65.66-6.40L65.66-6.40Q65.66-8.13 66.56-12.48L66.56-12.48L69.95-29.76L66.18-29.76L66.43-31.68L66.43-31.68Q74.11-33.98 81.54-39.62L81.54-39.62L84.61-39.62L83.07-32.64L88.06-32.64L87.49-29.76L82.56-29.76L79.30-12.48L79.30-12.48Q78.46-8.51 78.46-7.17L78.46-7.17L78.46-7.17Q78.46-4.10 81.15-3.46L81.15-3.46L81.15-3.46Q80.51-1.28 78.21 0L78.21 0L78.21 0Q75.90 1.28 72.64 1.28L72.64 1.28L72.64 1.28Q69.38 1.28 67.52-0.77L67.52-0.77L67.52-0.77Q65.66-2.82 65.66-6.40ZM103.10-3.52L103.10-3.52L103.10-3.52Q101.12 1.28 94.78 1.28L94.78 1.28L94.78 1.28Q91.52 1.28 89.47-0.96L89.47-0.96L89.47-0.96Q87.74-2.94 87.74-4.93L87.74-4.93L87.74-4.93Q87.74-10.11 90.11-20.22L90.11-20.22L92.48-32.64L105.47-33.92L101.57-13.70L101.57-13.70Q100.48-8.96 100.48-7.30L100.48-7.30L100.48-7.30Q100.48-3.65 103.10-3.52ZM93.63-41.54L93.63-41.54L93.63-41.54Q93.63-44.03 95.71-45.38L95.71-45.38L95.71-45.38Q97.79-46.72 100.80-46.72L100.80-46.72L100.80-46.72Q103.81-46.72 105.63-45.38L105.63-45.38L105.63-45.38Q107.46-44.03 107.46-41.54L107.46-41.54L107.46-41.54Q107.46-39.04 105.44-37.76L105.44-37.76L105.44-37.76Q103.42-36.48 100.42-36.48L100.42-36.48L100.42-36.48Q97.41-36.48 95.52-37.76L95.52-37.76L95.52-37.76Q93.63-39.04 93.63-41.54ZM154.62 1.28L154.62 1.28L154.62 1.28Q146.88 1.28 146.88-4.74L146.88-4.74L146.88-4.74Q146.88-7.36 148-12.45L148-12.45L148-12.45Q149.12-17.54 149.50-19.58L149.50-19.58L149.50-19.58Q150.40-24.26 150.40-25.73L150.40-25.73L150.40-25.73Q150.40-28.99 147.97-28.99L147.97-28.99L147.97-28.99Q146.37-28.99 144.83-26.78L144.83-26.78L144.83-26.78Q143.30-24.58 142.59-20.16L142.59-20.16L138.62 0L126.14 1.28L129.60-16.13L129.60-16.13Q130.18-19.01 130.69-22.27L130.69-22.27L130.69-22.27Q131.20-25.54 131.20-26.05L131.20-26.05L131.20-26.05Q131.20-28.99 129.02-28.99L129.02-28.99L129.02-28.99Q127.55-28.99 125.95-26.82L125.95-26.82L125.95-26.82Q124.35-24.64 123.46-20.16L123.46-20.16L119.55 0L106.94 1.28L113.66-32.64L124.10-33.92L123.01-27.46L123.01-27.46Q124.67-30.91 127.74-32.42L127.74-32.42L127.74-32.42Q130.82-33.92 135.62-33.92L135.62-33.92L135.62-33.92Q138.37-33.92 140.16-32.58L140.16-32.58L140.16-32.58Q141.95-31.23 142.53-29.06L142.53-29.06L142.53-29.06Q143.62-31.30 146.40-32.61L146.40-32.61L146.40-32.61Q149.18-33.92 152.61-33.92L152.61-33.92L152.61-33.92Q156.03-33.92 157.73-33.18L157.73-33.18L157.73-33.18Q159.42-32.45 160.45-31.23L160.45-31.23L160.45-31.23Q162.18-28.99 162.18-24.90L162.18-24.90L162.18-24.90Q162.18-20.86 160.45-12.48L160.45-12.48L160.45-12.48Q159.55-8.38 159.55-6.88L159.55-6.88L159.55-6.88Q159.55-5.38 160.42-4.48L160.42-4.48L160.42-4.48Q161.28-3.58 162.56-3.46L162.56-3.46L162.56-3.46Q161.92-1.28 159.71 0L159.71 0L159.71 0Q157.50 1.28 154.62 1.28ZM170.27-1.92L170.27-1.92L170.27-1.92Q168.77-3.58 168.10-6.21L168.10-6.21L168.10-6.21Q167.42-8.83 167.42-13.12L167.42-13.12L167.42-13.12Q167.42-17.41 168.90-21.31L168.90-21.31L168.90-21.31Q170.37-25.22 173.06-28.03L173.06-28.03L173.06-28.03Q178.56-33.92 187.65-33.92L187.65-33.92L187.65-33.92Q190.91-33.92 193.28-32.83L193.28-32.83L204.22-33.92L199.49-8.96L199.49-8.96Q199.30-8.19 199.30-6.78L199.30-6.78L199.30-6.78Q199.30-5.38 200.16-4.48L200.16-4.48L200.16-4.48Q201.02-3.58 202.30-3.46L202.30-3.46L202.30-3.46Q201.66-1.28 199.33 0L199.33 0L199.33 0Q196.99 1.28 194.37 1.28L194.37 1.28L194.37 1.28Q191.74 1.28 189.98 0.29L189.98 0.29L189.98 0.29Q188.22-0.70 187.71-2.37L187.71-2.37L187.71-2.37Q186.69-0.77 184.51 0.26L184.51 0.26L184.51 0.26Q182.34 1.28 179.42 1.28L179.42 1.28L179.42 1.28Q176.51 1.28 174.14 0.51L174.14 0.51L174.14 0.51Q171.78-0.26 170.27-1.92ZM183.78-27.90L183.78-27.90L183.78-27.90Q183.04-26.75 182.40-24.80L182.40-24.80L182.40-24.80Q181.76-22.85 180.70-17.63L180.70-17.63L180.70-17.63Q179.65-12.42 179.65-8.70L179.65-8.70L179.65-8.70Q179.65-4.99 180.22-3.90L180.22-3.90L180.22-3.90Q180.80-2.82 181.82-2.82L181.82-2.82L181.82-2.82Q183.87-2.82 185.38-4.77L185.38-4.77L185.38-4.77Q186.88-6.72 187.46-10.18L187.46-10.18L190.85-28.93L190.85-28.93Q189.50-30.08 187.94-30.08L187.94-30.08L187.94-30.08Q186.37-30.08 185.44-29.57L185.44-29.57L185.44-29.57Q184.51-29.06 183.78-27.90ZM208.70-6.40L208.70-6.40L208.70-6.40Q208.70-8.13 209.60-12.48L209.60-12.48L212.99-29.76L209.22-29.76L209.47-31.68L209.47-31.68Q217.15-33.98 224.58-39.62L224.58-39.62L227.65-39.62L226.11-32.64L231.10-32.64L230.53-29.76L225.60-29.76L222.34-12.48L222.34-12.48Q221.50-8.51 221.50-7.17L221.50-7.17L221.50-7.17Q221.50-4.10 224.19-3.46L224.19-3.46L224.19-3.46Q223.55-1.28 221.25 0L221.25 0L221.25 0Q218.94 1.28 215.68 1.28L215.68 1.28L215.68 1.28Q212.42 1.28 210.56-0.77L210.56-0.77L210.56-0.77Q208.70-2.82 208.70-6.40ZM256.45-10.82L256.45-10.82L256.45-10.82Q258.05-9.73 258.05-7.33L258.05-7.33L258.05-7.33Q258.05-4.93 256.83-3.39L256.83-3.39L256.83-3.39Q255.62-1.86 253.63-0.83L253.63-0.83L253.63-0.83Q249.54 1.28 245.12 1.28L245.12 1.28L245.12 1.28Q240.70 1.28 238.11 0.32L238.11 0.32L238.11 0.32Q235.52-0.64 233.79-2.43L233.79-2.43L233.79-2.43Q230.40-5.82 230.40-12.03L230.40-12.03L230.40-12.03Q230.40-21.70 235.65-27.58L235.65-27.58L235.65-27.58Q241.28-33.92 251.07-33.92L251.07-33.92L251.07-33.92Q257.15-33.92 260.16-31.36L260.16-31.36L260.16-31.36Q262.40-29.44 262.40-26.30L262.40-26.30L262.40-26.30Q262.40-15.04 242.94-15.04L242.94-15.04L242.94-15.04Q242.69-13.38 242.69-11.97L242.69-11.97L242.69-11.97Q242.69-9.02 244.00-7.90L244.00-7.90L244.00-7.90Q245.31-6.78 247.74-6.78L247.74-6.78L247.74-6.78Q250.18-6.78 252.77-7.90L252.77-7.90L252.77-7.90Q255.36-9.02 256.45-10.82ZM243.39-17.79L243.39-17.79L243.39-17.79Q247.94-17.79 250.56-20.61L250.56-20.61L250.56-20.61Q253.18-23.30 253.18-27.58L253.18-27.58L253.18-27.58Q253.18-29.06 252.64-29.86L252.64-29.86L252.64-29.86Q252.10-30.66 251.01-30.66L251.01-30.66L251.01-30.66Q249.92-30.66 248.99-30.24L248.99-30.24L248.99-30.24Q248.06-29.82 247.10-28.42L247.10-28.42L247.10-28.42Q244.74-25.22 243.39-17.79Z" fill="#444"></path></g></g><style>text {
  font-size: 64px;
  font-family: Arial Black;
  dominant-baseline: central;
  text-anchor: middle;
}</style></svg>