<?xml version="1.0" encoding="UTF-8"?>
<svg width="335.97px" height="120.8px" preserveAspectRatio="xMidYMid" viewBox="82.014 14.6 335.97 120.8" xmlns="http://www.w3.org/2000/svg">
<defs>
<filter id="a">
<feFlood flood-color="#f00" flood-opacity=".7" result="c1"/>
<feFlood flood-color="#0000ff" flood-opacity=".7" result="c3"/>
<feComposite in="c1" in2="SourceAlpha" operator="in" result="text-c1"/>
<feComposite in="c3" in2="SourceAlpha" operator="in" result="text-c3"/>
<feOffset dx="5" dy="-1" in="text-c1" result="text1"/>
<feOffset dx="-5" dy="1" in="text-c3" result="text3"/>
<feBlend in="SourceGraphic" in2="text1" mode="multiply" result="text4"/>
<feBlend in="text4" in2="text3" mode="multiply"/>
</filter>
</defs>
<g filter="url(#a)">
<g transform="translate(132.99 99)">
<path d="m2.69-39.68q0.89-1.79 2.85-2.78 1.95-1 4.64-1 4.22 0 6.75 3.04t2.53 9.7v22.85l14.65-34.31h7.55l1.73 32.39-0.19 1.85 15.23-34.24h8.77l-20.48 42.18h-13.63l-1.28-19.46-8.45 19.46h-15.42l-1.92-30.72q-0.2-3.46-1.12-5.73-0.93-2.27-2.21-3.23zm77.12 36.16q-1.99 4.8-8.32 4.8-3.27 0-5.31-2.24-1.73-1.98-1.73-3.97 0-5.18 2.37-15.29l2.36-12.42 13-1.28-3.91 20.22q-1.09 4.74-1.09 6.4 0 3.65 2.63 3.78zm-9.47-38.02q0-2.49 2.08-3.84 2.08-1.34 5.08-1.34 3.01 0 4.84 1.34 1.82 1.35 1.82 3.84 0 2.5-2.02 3.78-2.01 1.28-5.02 1.28t-4.9-1.28q-1.88-1.28-1.88-3.78zm41.98 42.82q-7.74 0-7.74-6.02 0.06-1.66 0.57-4.48l1.15-5.88q1.73-8.32 1.73-10.18 0-3.71-2.17-3.71-3.65 0-5.57 9.53l-3.78 19.46-12.86 1.28 6.65-33.98 10.5-1.22-1.02 6.27q3-6.27 12.22-6.27 4.48 0 6.37 1.89t1.89 6.11q0 3.97-2.05 13.25-0.96 4.16-0.96 5.73 0 1.56 0.86 2.46 0.87 0.9 2.15 1.02-0.64 2.18-2.85 3.46t-5.09 1.28zm40.13 0q-7.75 0-7.75-6.02 0.07-1.66 0.58-4.48l1.15-5.88q1.73-8.32 1.73-10.18 0-3.71-2.18-3.71-3.64 0-5.56 9.53l-3.78 19.46-12.86 1.28 6.65-33.98 10.5-1.22-1.03 6.27q3.01-6.27 12.23-6.27 4.48 0 6.37 1.89 1.88 1.89 1.88 6.11 0 3.97-2.04 13.25-0.96 4.16-0.96 5.73 0 1.56 0.86 2.46t2.14 1.02q-0.64 2.18-2.84 3.46-2.21 1.28-5.09 1.28zm38.97-12.1q1.6 1.09 1.6 3.49t-1.21 3.94q-1.22 1.53-3.2 2.56-4.1 2.11-8.51 2.11-4.42 0-7.01-0.96t-4.32-2.75q-3.39-3.39-3.39-9.6 0-9.67 5.24-15.55 5.64-6.34 15.43-6.34 6.08 0 9.09 2.56 2.24 1.92 2.24 5.06 0 11.26-19.46 11.26-0.26 1.66-0.26 3.07 0 2.95 1.32 4.07 1.31 1.12 3.74 1.12t5.02-1.12q2.6-1.12 3.68-2.92zm-13.05-6.97q4.54 0 7.17-2.82 2.62-2.69 2.62-6.97 0-1.48-0.54-2.28-0.55-0.8-1.64-0.8-1.08 0-2.01 0.42t-1.89 1.82q-2.37 3.2-3.71 10.63zm41.21-0.19q2.31-4.1 2.31-8.26 0-2.75-1.99-2.75-1.53 0-3.13 2.62-1.67 2.63-2.18 6.02l-3.33 20.35-13.24 1.28 6.52-33.92 10.56-1.28-1.15 6.46q3.14-6.46 10.18-6.46 3.71 0 5.73 1.92 2.01 1.92 2.01 5.86 0 3.93-2.59 6.43-2.59 2.49-7.01 2.49-1.92 0-2.69-0.76z" fill="#444"/>
</g>
</g>
<style>text {
  font-size: 64px;
  font-family: Arial Black;
  dominant-baseline: central;
  text-anchor: middle;
}</style>
</svg>
