<?xml version="1.0" encoding="UTF-8"?>
<svg width="81.44px" height="120.8px" preserveAspectRatio="xMidYMid" viewBox="209.28 14.6 81.44 120.8" xmlns="http://www.w3.org/2000/svg">
<defs>
<filter id="a">
<feFlood flood-color="#f00" flood-opacity=".7" result="c1"/>
<feFlood flood-color="#0000ff" flood-opacity=".7" result="c3"/>
<feComposite in="c1" in2="SourceAlpha" operator="in" result="text-c1"/>
<feComposite in="c3" in2="SourceAlpha" operator="in" result="text-c3"/>
<feOffset dx="5" dy="-1" in="text-c1" result="text1"/>
<feOffset dx="-5" dy="1" in="text-c3" result="text3"/>
<feBlend in="SourceGraphic" in2="text1" mode="multiply" result="text4"/>
<feBlend in="text4" in2="text3" mode="multiply"/>
</filter>
</defs>
<g filter="url(#a)">
<g transform="translate(230.76 97.335)">
<path d="m3.07-39.87q3.01-3.52 8-3.52 3.97 0 6.08 1.53 2.11 1.6 3.52 5.51l2.69 7.61 9.66-13.44h8.64l-15.68 20.8 4.04 11.4q0.89 2.56 2.46 4.44 1.57 1.89 2.98 2.21-1.28 2.43-3.49 3.52t-5.44 1.09-5.51-2.11q-2.27-2.11-4-6.85l-1.85-5.12-9.67 12.8h-7.87l14.72-20.42-4.61-12.86q-1.02-2.82-2.04-4.26-1.03-1.44-2.63-2.33z" fill="#444"/>
</g>
</g>
<style>text {
  font-size: 64px;
  font-family: Arial Black;
  dominant-baseline: central;
  text-anchor: middle;
}</style>
</svg>
